HIERARCHY
ROOT Hips
{
	OFFSET 0.00000 0.00000 0.00000
	CHANNELS 6 Xposition Yposition Zposition Zrotation Yrotation Xrotation 
	JOINT RightUpLegDummy
	{
		OFFSET 0 0 0
		CHANNELS 3 Zrotation Yrotation Xrotation
		JOINT RightUpLeg
		{
			OFFSET -3.52197 -3.41223 0.04002
			CHANNELS 3 Zrotation Yrotation Xrotation
			JOINT RightLeg
			{
				OFFSET 0.00006 -17.42390 1.60435
				CHANNELS 3 Zrotation Yrotation Xrotation
				JOINT RightFoot
				{
					OFFSET 0.06153 -16.50078 -1.63901
					CHANNELS 3 Zrotation Yrotation Xrotation
					JOINT RightToes
					{
						OFFSET 0.00298 -1.73825 3.34613
						CHANNELS 3 Zrotation Yrotation Xrotation
						End Site
						{
							OFFSET 0.00480 -0.05416 3.85043
						}
					}
				}
			}
		}
	}
	JOINT SpineDummy
	{
		OFFSET 0 0 0
		CHANNELS 3 Zrotation Yrotation Xrotation
		JOINT Spine
		{
			OFFSET 0.00000 4.68130 0.00000
			CHANNELS 3 Zrotation Yrotation Xrotation
			JOINT Spine1
			{
				OFFSET -0.00000 10.10138 0.05002
				CHANNELS 3 Zrotation Yrotation Xrotation
				JOINT HEadDummy
				{
					OFFSET 0 0 0
					CHANNELS 3 Zrotation Yrotation Xrotation
					JOINT Head
					{
						OFFSET -0.00000 3.43865 0.00438
						CHANNELS 3 Zrotation Yrotation Xrotation
						End Site
						{
							OFFSET -0.11417 5.02924 0.98962
						}
					}
				}
				JOINT LeftShoulder1Dummy
				{
					OFFSET 0 0 0
					CHANNELS 3 Zrotation Yrotation Xrotation
					JOINT LeftShoulder1
					{
						OFFSET 3.53937 -0.14262 -0.08662
						CHANNELS 3 Zrotation Yrotation Xrotation
						JOINT LeftArm
						{
							OFFSET 4.04833 -0.00133 0.12681
							CHANNELS 3 Zrotation Yrotation Xrotation
							JOINT LeftForeArm
							{
								OFFSET 10.33880 -0.01036 -0.55515
								CHANNELS 3 Zrotation Yrotation Xrotation
								JOINT LeftHand
								{
									OFFSET 8.69677 0.07543 0.40060
									CHANNELS 3 Zrotation Yrotation Xrotation
									End Site
									{
										OFFSET 5.28377 -0.21905 0.59205
									}
								}
							}
						}
					}
				}
				JOINT RightShoulderDummy
				{
					OFFSET 0 0 0
					CHANNELS 3 Zrotation Yrotation Xrotation
					JOINT RightShoulder
					{
						OFFSET -3.53937 -0.14262 -0.08660
						CHANNELS 3 Zrotation Yrotation Xrotation
						JOINT RightArm
						{
							OFFSET -4.04833 -0.00133 0.12683
							CHANNELS 3 Zrotation Yrotation Xrotation
							JOINT RightForeArm
							{
								OFFSET -10.37987 -0.01039 -0.55511
								CHANNELS 3 Zrotation Yrotation Xrotation
								JOINT RightHand
								{
									OFFSET -8.67398 0.07538 0.40058
									CHANNELS 3 Zrotation Yrotation Xrotation
									End Site
									{
										OFFSET -5.24810 -0.21916 0.59204
									}
								}
							}
						}
					}
				}
			}
		}
	}
	JOINT LeftUpLegDummy
	{
		OFFSET 0 0 0
		CHANNELS 3 Zrotation Yrotation Xrotation
		JOINT LeftUpLeg
		{
			OFFSET 3.52197 -3.41223 0.04002
			CHANNELS 3 Zrotation Yrotation Xrotation
			JOINT LeftLeg
			{
				OFFSET -0.00012 -17.42399 1.60337
				CHANNELS 3 Zrotation Yrotation Xrotation
				JOINT LeftFoot
				{
					OFFSET -0.09972 -16.50070 -1.63802
					CHANNELS 3 Zrotation Yrotation Xrotation
					JOINT LeftToes
					{
						OFFSET -0.01575 -1.73823 3.34611
						CHANNELS 3 Zrotation Yrotation Xrotation
						End Site
						{
							OFFSET 0.03150 -0.01868 3.85031
						}
					}
				}
			}
		}
	}
}
MOTION
Frames: 11
Frame Time: 0.033333
20.4311 38.9757 -10.7683 4.4670 37.0844 -1.9208 0.0000 0.0000 0.0000 4.5557 1.8825 -12.9569 -2.6634 -31.4792 -0.0007 -3.5433 0.3448 -0.2974 0.0000 -0.0000 0.0000 0.0000 0.0000 0.0000 -4.7075 -1.5192 9.1459 8.9110 -3.1620 -2.6928 -0.0000 0.0000 -0.0000 3.4535 -2.4304 -5.2193 -0.0000 0.0000 -0.0000 -35.1741 -2.5607 2.5000 -39.7370 -19.6681 -16.6211 -11.2622 5.2250 44.2205 15.7913 -4.3203 -1.2902 -0.0000 0.0000 -0.0000 35.1338 5.2290 3.5944 39.8950 0.8363 -18.2992 10.4789 -1.5635 22.7218 -10.4475 1.4303 -0.6014 0.0000 0.0000 0.0000 -0.6648 10.4197 16.2004 1.1182 9.6174 13.1552 -7.3579 -0.0093 -12.6446 0.0000 0.0000 -0.0000
21.1927 38.8244 -9.6953 4.0882 35.8264 -2.6137 0.0000 0.0000 0.0000 5.3428 1.5967 -12.6780 -3.9362 -28.9047 4.1933 -5.5550 0.6414 1.6454 0.0000 -0.0000 0.0000 0.0000 0.0000 0.0000 -3.7520 -1.6238 8.4539 8.3827 -3.1437 -2.2292 -0.0000 0.0000 -0.0000 3.3222 -2.6448 -4.7696 -0.0000 0.0000 -0.0000 -35.4458 -2.5175 2.4989 -40.4790 -18.4145 -16.6484 -11.2790 5.2339 43.8723 15.7232 -4.2464 -1.2748 -0.0000 0.0000 -0.0000 35.2913 5.2499 3.6170 39.8035 0.4552 -19.0729 10.2093 -2.7727 23.4797 -10.1055 1.3473 -0.5746 0.0000 0.0000 0.0000 2.3089 17.7259 16.8008 1.3132 2.4469 18.0932 -10.6349 0.0491 -11.5730 0.0000 0.0000 -0.0000
21.8591 38.6497 -8.6366 3.3691 34.1628 -3.6228 0.0000 0.0000 0.0000 6.4467 1.4029 -12.5533 -5.0352 -26.2788 8.7696 -8.1103 0.9736 2.2721 0.0000 -0.0000 0.0000 0.0000 0.0000 0.0000 -2.5611 -1.5233 8.4286 7.9370 -2.8969 -2.3964 -0.0000 0.0000 -0.0000 3.1600 -2.8896 -3.9805 -0.0000 0.0000 -0.0000 -35.4549 -2.4522 2.4724 -41.6518 -16.9318 -16.9253 -11.1260 5.2378 43.7979 15.5335 -3.9798 -1.2251 -0.0000 0.0000 -0.0000 35.3834 5.2599 3.6294 39.6120 -0.0167 -19.6297 10.0252 -3.6325 23.9890 -10.0150 1.3266 -0.5677 0.0000 0.0000 0.0000 4.7739 19.7274 15.7403 1.0700 1.1010 25.7961 -14.8029 0.4239 -8.5968 0.0000 0.0000 -0.0000
22.4331 38.4871 -7.6399 2.5797 32.0220 -4.6226 0.0000 0.0000 0.0000 7.6666 1.2446 -12.3968 -5.8966 -23.8700 13.3770 -10.2867 1.0353 0.1250 0.0000 -0.0000 0.0000 0.0000 0.0000 0.0000 -1.3918 -1.2687 8.9780 7.5801 -2.4971 -3.0221 -0.0000 0.0000 -0.0000 3.1023 -2.9065 -3.0902 -0.0000 0.0000 -0.0000 -35.2830 -2.4215 2.4492 -42.8817 -15.4186 -17.3340 -10.8968 5.2372 43.9286 14.8865 -3.7725 -1.1469 -0.0000 0.0000 -0.0000 35.3340 5.2563 3.6234 39.3639 -0.0593 -19.9501 9.9020 -4.2566 24.3867 -10.0988 1.3675 -0.5758 0.0000 0.0000 0.0000 6.8269 20.6854 12.8680 1.3779 1.1144 35.4653 -16.8315 1.4561 -1.4638 0.0000 0.0000 -0.0000
22.9348 38.3101 -6.7208 1.9983 29.9342 -5.4399 0.0000 0.0000 0.0000 8.6819 1.0265 -12.0828 -6.5718 -21.6700 17.6787 -10.8726 0.7509 -3.3814 0.0000 -0.0000 0.0000 0.0000 0.0000 0.0000 -0.6081 -1.0745 9.8447 7.3698 -2.2051 -3.6201 -0.0000 0.0000 -0.0000 3.3710 -3.1190 -2.7036 -0.0000 0.0000 -0.0000 -35.0267 -2.4771 2.4565 -43.8383 -14.2048 -17.5186 -10.7836 5.2310 44.2219 13.7461 -3.8890 -1.0684 -0.0000 0.0000 -0.0000 35.1991 5.2394 3.6044 39.1410 0.4694 -19.9770 9.8481 -4.2266 24.4678 -10.0083 1.3588 -0.5699 0.0000 0.0000 0.0000 7.6751 19.8858 8.4063 1.9859 1.2733 45.5059 -13.9660 2.3740 8.6009 0.0000 0.0000 -0.0000
23.3776 38.1343 -5.8452 1.8015 28.3250 -6.0380 0.0000 0.0000 0.0000 9.3458 0.8389 -11.5332 -7.2764 -19.8263 21.2618 -10.0993 0.4134 -6.4078 0.0000 -0.0000 0.0000 0.0000 0.0000 0.0000 -0.5273 -1.0053 10.7338 7.4533 -2.1240 -3.8758 -0.0000 0.0000 -0.0000 4.0506 -3.8770 -3.0191 -0.0000 0.0000 -0.0000 -34.8419 -2.5778 2.4864 -44.3607 -13.5821 -17.2746 -10.8602 5.2104 44.9581 12.5953 -4.2832 -1.0154 -0.0000 0.0000 -0.0000 35.1019 5.2175 3.5868 38.9516 1.2461 -19.5277 9.9840 -3.1353 23.7377 -9.8473 1.3179 -0.5573 0.0000 0.0000 0.0000 7.1584 17.1100 3.2371 1.8164 0.7642 54.0795 -7.7692 1.7873 15.6211 0.0000 0.0000 -0.0000
23.8347 38.0615 -4.9148 1.9970 26.8576 -6.3593 0.0000 0.0000 0.0000 9.6696 0.7917 -10.2946 -7.7852 -18.3311 23.3614 -9.3770 0.1823 -8.7161 0.0000 -0.0000 0.0000 0.0000 0.0000 0.0000 -0.8785 -0.8946 11.2249 7.6045 -2.0483 -3.8007 -0.0000 0.0000 -0.0000 4.8616 -4.7544 -3.4578 -0.0000 0.0000 -0.0000 -34.8271 -2.6131 2.4999 -44.4501 -13.5055 -16.9304 -10.9449 5.1717 46.3382 12.0222 -4.7265 -1.0100 -0.0000 0.0000 -0.0000 35.0970 5.2058 3.5815 38.7302 1.9541 -18.5808 10.3431 -1.2821 22.2574 -10.0528 1.4347 -0.5786 0.0000 0.0000 0.0000 5.8562 13.3482 -1.7363 2.4694 0.8010 60.2454 -2.1314 0.4361 15.6717 0.0000 0.0000 -0.0000
24.3366 38.0858 -3.9100 2.4215 24.8516 -6.3825 0.0000 0.0000 0.0000 9.7198 0.6765 -8.4123 -7.6126 -16.5183 24.0773 -9.2246 -0.0147 -11.0183 0.0000 -0.0000 0.0000 0.0000 0.0000 0.0000 -1.0102 -0.5691 11.2770 7.3077 -1.6923 -3.7424 -0.0000 0.0000 -0.0000 5.3369 -5.1863 -3.3802 -0.0000 0.0000 -0.0000 -34.8217 -2.5365 2.4683 -44.3076 -13.6268 -17.1065 -10.7494 5.1275 47.9900 12.1539 -5.1508 -1.0630 -0.0000 0.0000 -0.0000 35.1082 5.2036 3.5816 38.5513 2.5489 -17.4296 10.7492 0.7161 20.8695 -10.5521 1.7614 -0.6352 0.0000 0.0000 0.0000 4.5228 9.8450 -6.1573 6.0458 2.0256 63.6334 1.3526 -0.3413 11.1868 0.0000 0.0000 -0.0000
24.8422 38.1194 -2.8937 2.8805 22.1350 -6.2691 0.0000 0.0000 0.0000 9.4928 0.3985 -6.3899 -6.6496 -13.9640 24.2934 -9.0437 -0.2089 -13.3666 0.0000 -0.0000 0.0000 0.0000 0.0000 0.0000 -0.6452 -0.0336 11.2775 6.4273 -1.0142 -3.9187 -0.0000 0.0000 -0.0000 5.3840 -5.2676 -2.9837 -0.0000 0.0000 -0.0000 -34.6158 -2.4207 2.4087 -44.1638 -13.6221 -17.8623 -10.3003 5.1055 48.9388 12.6478 -5.5014 -1.1437 -0.0000 0.0000 -0.0000 35.0002 5.1831 3.5637 38.6050 3.1553 -16.3919 11.0230 2.6375 20.1548 -10.7523 2.0482 -0.6718 0.0000 0.0000 0.0000 3.5129 6.8668 -10.0168 10.7365 3.7007 64.3549 3.6245 -0.6242 6.8569 0.0000 0.0000 -0.0000
25.3161 38.1623 -1.8798 3.3194 19.1148 -6.2300 0.0000 0.0000 0.0000 9.0101 0.0046 -4.2567 -5.2474 -10.9748 24.2700 -8.7917 -0.3532 -15.1993 0.0000 -0.0000 0.0000 0.0000 0.0000 0.0000 -0.1479 0.5805 11.4284 5.4623 -0.2375 -4.0708 -0.0000 0.0000 -0.0000 5.3172 -5.3207 -2.9741 -0.0000 0.0000 -0.0000 -34.3650 -2.3685 2.3725 -43.9640 -13.3597 -18.4183 -10.0913 5.1288 48.2189 13.0910 -5.4223 -1.1772 -0.0000 0.0000 -0.0000 34.7227 5.1273 3.5165 38.8655 3.9545 -15.3695 11.1646 4.5118 19.6372 -10.4486 2.1045 -0.6571 0.0000 0.0000 0.0000 2.7995 3.9374 -13.1623 13.6173 5.2747 62.5960 6.2409 -0.8605 3.9293 0.0000 0.0000 -0.0000
25.7477 38.2507 -0.8369 3.7918 16.2098 -6.2676 0.0000 0.0000 0.0000 8.3097 -0.4422 -1.7968 -3.8021 -8.0936 23.7073 -9.0364 -0.4673 -16.4752 0.0000 -0.0000 0.0000 0.0000 0.0000 0.0000 0.0330 1.1345 11.5267 4.9105 0.4001 -3.9087 -0.0000 0.0000 -0.0000 5.2953 -5.2092 -3.4671 -0.0000 0.0000 -0.0000 -34.3625 -2.4038 2.3866 -43.5110 -12.8418 -18.2055 -10.4379 5.1833 46.1410 13.2972 -4.7211 -1.1216 -0.0000 0.0000 -0.0000 34.4083 5.0670 3.4645 39.0403 5.0579 -13.8079 11.2322 6.1515 18.4922 -10.0887 2.0733 -0.6311 0.0000 0.0000 0.0000 2.2940 0.9297 -15.4606 14.1671 6.7958 58.2978 8.1689 -0.9000 1.0731 0.0000 0.0000 -0.0000
